<svg width="512" height="512" viewBox="0 0 48 48" fill="none" xmlns="http://www.w3.org/2000/svg">
  <path d="M5.03628 7.87818C4.75336 5.83955 6.15592 3.95466 8.16899 3.66815L33.6838 0.0367403C35.6969 -0.24977 37.5581 1.1706 37.841 3.20923L42.9637 40.1218C43.2466 42.1604 41.8441 44.0453 39.831 44.3319L14.3162 47.9633C12.3031 48.2498 10.4419 46.8294 10.159 44.7908L5.03628 7.87818Z" fill="url(#paint0_linear_1287_1214)"/>
  <path d="M6.85877 7.6188C6.71731 6.59948 7.41859 5.65703 8.42512 5.51378L33.9399 1.88237C34.9465 1.73911 35.8771 2.4493 36.0186 3.46861L41.1412 40.3812C41.2827 41.4005 40.5814 42.343 39.5749 42.4862L14.0601 46.1176C13.0535 46.2609 12.1229 45.5507 11.9814 44.5314L6.85877 7.6188Z" fill="white"/>
<text x="0" y="18" transform="rotate(80 17,22)" fill="url(#paint1_linear_1287_1214)"> GTIIP</text>
  <defs>
    <linearGradient id="paint0_linear_1287_1214" x1="6.48163" y1="1.9759" x2="39.05" y2="48.2064" gradientUnits="userSpaceOnUse">
      <stop stop-color="#49C7FF"/>
      <stop offset="1" stop-color="#BD36FF"/>
    </linearGradient>
    <linearGradient id="paint1_linear_1287_1214" x1="11.8848" y1="16.4266" x2="26.7246" y2="31.4177" gradientUnits="userSpaceOnUse">
      <stop stop-color="#41D1FF"/>
      <stop offset="1" stop-color="#BD34FE"/>
    </linearGradient>
    <linearGradient id="paint2_linear_1287_1214" x1="21.8138" y1="13.7046" x2="26.2464" y2="28.8069" gradientUnits="userSpaceOnUse">
      <stop stop-color="#FFEA83"/>
      <stop offset="0.0833333" stop-color="#FFDD35"/>
      <stop offset="1" stop-color="#FFA800"/>
    </linearGradient>
  </defs>
</svg>